<svg width="800" height="800" viewBox="0 0 800 800" fill="none" xmlns="http://www.w3.org/2000/svg">
<path fill-rule="evenodd" clip-rule="evenodd" d="M32 179.2C32 97.9036 97.9036 32 179.2 32H620.8C702.095 32 768 97.9036 768 179.2V620.8C768 702.095 702.095 768 620.8 768H179.2C97.9036 768 32 702.095 32 620.8V179.2ZM179.2 105.6C138.552 105.6 105.6 138.552 105.6 179.2V620.8C105.6 661.449 138.552 694.4 179.2 694.4H620.8C661.449 694.4 694.4 661.449 694.4 620.8V179.2C694.4 138.552 661.449 105.6 620.8 105.6H179.2ZM400 289.6C339.026 289.6 289.6 339.026 289.6 400C289.6 460.974 339.026 510.4 400 510.4C460.974 510.4 510.4 460.974 510.4 400C510.4 339.026 460.974 289.6 400 289.6ZM216 400C216 298.38 298.38 216 400 216C501.62 216 584 298.38 584 400C584 501.62 501.62 584 400 584C298.38 584 216 501.62 216 400ZM602.4 252.8C632.885 252.8 657.6 228.086 657.6 197.6C657.6 167.114 632.885 142.4 602.4 142.4C571.915 142.4 547.2 167.114 547.2 197.6C547.2 228.086 571.915 252.8 602.4 252.8Z" fill="#FF0000"/>
</svg>
