<svg width="800" height="800" viewBox="0 0 800 800" fill="none" xmlns="http://www.w3.org/2000/svg">
<path d="M764.216 31.7462C756.107 24.8173 745.391 21.7807 734.825 23.4477L272.696 96.4149C254.965 99.2144 241.904 114.499 241.904 132.451V278.387V509.451H168.936C88.4669 509.452 23 569.463 23 643.225C23 716.989 88.4669 777 168.936 777C249.405 777 314.872 716.989 314.872 643.225V545.934V309.561L704.033 248.115V448.645H631.066C550.597 448.645 485.13 508.656 485.13 582.419C485.13 656.183 550.597 716.194 631.066 716.194C711.535 716.194 777 656.182 777 582.419V485.128V205.419V59.4836C777 48.8142 772.327 38.678 764.216 31.7462Z" fill="#FF0000"/>
</svg>
